<svg width="311" height="105" viewBox="0 0 311 105" fill="none" xmlns="http://www.w3.org/2000/svg">
<path d="M271.851 76.7715C254.447 94.3595 187.367 72.5868 208.796 50.9317C223.18 39.9525 231.464 67.8341 248.868 50.2461C266.273 32.6581 266.062 17.959 277.741 20.2242C291.393 22.8719 289.256 59.1835 271.851 76.7715Z" fill="#48A0F0" fill-opacity="0.3"/>
<path d="M48.6852 46.0977C47.6021 40.288 65.8753 29.1776 67.2089 36.3308C67.2128 40.6841 58.6417 38.8829 59.7248 44.6925C60.808 50.5022 65.9737 50.4939 62.0384 54.4931C56.1306 56.5743 49.7684 51.9074 48.6852 46.0977Z" fill="#48A0F0" fill-opacity="0.3"/>
<path d="M129.717 58.1749C125.651 61.5214 120.933 62.5059 119.178 60.3738C117.423 58.2418 119.296 53.8005 123.362 50.454C127.428 47.1074 132.146 46.1229 133.901 48.255C135.656 50.3871 133.783 54.8283 129.717 58.1749Z" fill="#48A0F0" fill-opacity="0.3"/>
<circle cx="111" cy="64.3945" r="5" fill="#48A0F0" fill-opacity="0.3"/>
</svg>
