<svg width="22" height="23" viewBox="0 0 22 23" fill="none" xmlns="http://www.w3.org/2000/svg">
<rect width="20.9095" height="22.0994" transform="translate(0.298828 0.769287)" fill="white"/>
<path d="M19.0304 11.3585C18.9149 11.3585 18.8041 11.4071 18.7224 11.4934C18.6407 11.5797 18.5948 11.6968 18.5948 11.819C18.5914 13.8113 17.9106 15.7359 16.6765 17.2419C15.4424 18.7479 13.7372 19.7348 11.872 20.0227C10.0067 20.3107 8.10573 19.8804 6.51565 18.8103C4.92557 17.7403 3.75238 16.1018 3.21006 14.1938C2.66774 12.2857 2.79242 10.2352 3.56136 8.41615C4.3303 6.59714 5.69227 5.13087 7.39886 4.28475C9.10544 3.43863 11.0429 3.26906 12.858 3.80695C14.673 4.34484 16.2446 5.55435 17.2862 7.2149H14.6742C14.5587 7.2149 14.4479 7.26341 14.3662 7.34975C14.2845 7.43609 14.2386 7.5532 14.2386 7.6753C14.2386 7.79741 14.2845 7.91452 14.3662 8.00086C14.4479 8.0872 14.5587 8.13571 14.6742 8.13571H18.1592C18.2747 8.13571 18.3855 8.0872 18.4672 8.00086C18.5489 7.91452 18.5948 7.79741 18.5948 7.6753V3.99206C18.5948 3.86996 18.5489 3.75285 18.4672 3.66651C18.3855 3.58016 18.2747 3.53166 18.1592 3.53166C18.0436 3.53166 17.9328 3.58016 17.8511 3.66651C17.7694 3.75285 17.7235 3.86996 17.7235 3.99206V6.29133C16.914 5.15133 15.865 4.22554 14.6593 3.58688C13.4536 2.94821 12.1241 2.61409 10.7755 2.61085C5.96369 2.6044 2.05884 6.72227 2.05274 11.807C2.04664 16.8917 5.94191 21.0206 10.7537 21.0271C15.5629 21.0215 19.4608 16.9018 19.466 11.819C19.466 11.6968 19.4201 11.5797 19.3384 11.4934C19.2567 11.4071 19.1459 11.3585 19.0304 11.3585Z" fill="#48A0F0"/>
</svg>
