<svg width="90" height="90" viewBox="0 0 90 90" fill="none" xmlns="http://www.w3.org/2000/svg">
<path d="M63.2686 33.0625V57C63.2686 60.5 60.3956 63.375 56.898 63.375H33.102C29.6044 63.375 26.7314 60.5 26.7314 57V33.0625C26.7314 29.5625 29.6044 26.6875 33.102 26.6875H56.898C60.3956 26.6875 63.2686 29.5625 63.2686 33.0625Z" fill="#48A0F0" fill-opacity="0.7"/>
<path d="M57.6475 31.75H52.0888V37.5H57.6475V31.75Z" fill="white"/>
<path d="M54.2124 44.9375C54.2124 50.0625 50.0902 54.1875 44.9688 54.1875C39.8473 54.1875 35.7252 50.0625 35.7252 44.9375C35.7252 43.5625 36.0375 42.25 36.5996 41.0625H30.4788V56.9375C30.4788 58.375 31.6655 59.5625 33.102 59.5625H56.898C58.3345 59.5625 59.5212 58.375 59.5212 56.9375V41.0625H53.4004C53.9001 42.25 54.2124 43.5625 54.2124 44.9375Z" fill="white"/>
<path d="M44.9688 50.4375C48.0291 50.4375 50.465 48 50.465 44.9375C50.465 43.4375 49.8404 42.0625 48.9035 41.0625H41.0965C40.0972 42.0625 39.535 43.4375 39.535 44.9375C39.4726 48 41.9709 50.4375 44.9688 50.4375Z" fill="white"/>
<path d="M44.9992 8.875C25.0756 8.875 8.8993 25.0625 8.8993 45C8.8993 64.9375 25.0756 81.125 44.9992 81.125C64.9229 81.125 81.0992 64.9375 81.0992 45C81.0992 25.0625 64.9854 8.875 44.9992 8.875ZM63.299 56.9375C63.299 60.4375 60.426 63.3125 56.9285 63.3125H33.1325C29.6349 63.3125 26.7619 60.4375 26.7619 56.9375V33.0625C26.7619 29.5625 29.6349 26.6875 33.1325 26.6875H56.9285C60.426 26.6875 63.299 29.5625 63.299 33.0625V56.9375Z" fill="white"/>
</svg>
