<svg width="90" height="90" viewBox="0 0 90 90" fill="none" xmlns="http://www.w3.org/2000/svg">
<path d="M44.9685 8.875C24.3578 8.875 7.8068 26.125 8.86856 47C9.80541 65.375 24.6076 80.1875 42.9699 81.125C63.8304 82.25 81.0684 65.625 81.0684 45C81.1309 25.0625 64.9546 8.875 44.9685 8.875ZM57.3349 32C57.3349 32.375 57.0851 32.625 56.7103 32.625H47.9039V37.375H56.7103C57.0851 37.375 57.3349 37.625 57.3349 38V46.8125C57.3349 47.1875 57.0851 47.4375 56.7103 47.4375H48.5285V66.75C48.5285 67.0625 48.2787 67.375 47.9039 67.375H39.5972C39.2849 67.375 38.9727 67.0625 38.9727 66.75V47.375H33.2891C32.9768 47.375 32.6645 47.0625 32.6645 46.75V37.9375C32.6645 37.625 32.9768 37.3125 33.2891 37.3125H38.9727V33.75C38.9727 33.6875 38.9727 33.625 38.9727 33.625C38.9727 28.5625 40.0344 22.75 48.4036 22.6875H48.4661H56.7103C57.0851 22.6875 57.3349 23 57.3349 23.3125V32Z" fill="white"/>
<path d="M47.9041 32.625V37.375H56.7105C57.0852 37.375 57.3351 37.625 57.3351 38V46.8125C57.3351 47.1875 57.0852 47.4375 56.7105 47.4375H48.5287V66.75C48.5287 67.0625 48.2788 67.375 47.9041 67.375H39.5974C39.2851 67.375 38.9728 67.0625 38.9728 66.75V47.375H33.2893C32.977 47.375 32.6647 47.0625 32.6647 46.75V37.9375C32.6647 37.625 32.977 37.3125 33.2893 37.3125H38.9728V33.75C38.9728 33.6875 38.9728 33.625 38.9728 33.625C38.9728 28.5625 40.0346 22.75 48.4038 22.6875H48.4662H56.7105C57.0852 22.6875 57.3351 23 57.3351 23.3125V32C57.3351 32.375 57.0852 32.625 56.7105 32.625H47.9041Z" fill="#48A0F0" fill-opacity="0.7"/>
</svg>
