<svg width="486" height="230" viewBox="0 0 486 230" fill="none" xmlns="http://www.w3.org/2000/svg">
<path d="M60.8466 67.3081C64.2797 66.896 67.6122 69.5141 67.8504 73.4324C68.1802 80.0484 68.1195 86.6338 68.0679 93.2956C68.0257 103.903 67.8308 114.529 67.7214 125.222C67.6576 130.492 66.2264 132.753 62.7476 132.784C59.107 132.757 56.2718 129.769 56.1801 125.137C55.9784 117.654 56.0147 110.221 56.0082 101.786C51.6749 103.08 47.4667 104.127 43.3898 105.622C42.7978 105.848 42.3798 107.523 42.3463 108.534C42.2061 113.813 42.304 119.141 42.2493 124.488C42.28 127.966 42.0726 131.397 37.4768 131.793C33.8729 132.071 30.696 128.815 30.708 124.403C30.619 113.347 30.8352 102.254 30.8988 91.1794C30.9383 86.9955 31.0632 82.8789 30.9501 78.7134C30.8217 73.7758 32.4542 71.2581 36.0094 71.2183C39.8697 71.1419 42.9215 74.645 42.8332 79.0669C42.7632 83.6413 42.7604 88.1302 42.6782 93.2479C47.0481 92.2589 50.9695 91.4012 54.7779 90.2476C55.5225 90.0034 56.3311 88.3585 56.3646 87.3484C56.5475 83.07 56.5687 78.7336 56.5136 74.4064C56.4158 71.013 56.498 67.8301 60.8466 67.3081ZM125.805 115.386C126.058 116.207 126.311 117.028 126.912 118.813C126.183 119.829 125.359 122.637 124.215 122.774C122.003 123.04 118.774 122.576 117.361 121.12C115.322 118.966 114.08 115.71 113.409 112.695C112.511 109.088 110.775 109.451 107.781 109.656C99.4107 110.196 94.9585 114.368 94.1838 122.742C94.0251 123.999 93.4759 125.226 93.0792 126.434C92.112 129.336 90.3391 131.329 87.0249 130.798C83.7017 130.191 81.5868 128.046 81.5561 124.567C81.5072 122.87 82.1541 121.168 82.4958 119.501C87.0114 100.386 91.3653 81.212 96.0335 62.078C96.7444 58.9745 98.3036 55.8465 100.174 53.3776C102.985 49.7124 109.234 52.1352 110.8 57.4419C112.207 62.0712 112.946 66.9355 114.209 71.6594C117.97 86.2217 121.892 100.842 125.805 115.386ZM100.777 99.6619C103.783 98.9141 106.044 98.4105 108.678 97.7848C107.463 92.8228 106.285 88.1661 105.107 83.5093L104.326 83.4483C103.166 88.6179 102.092 93.8545 100.777 99.6619ZM184.218 61.63C186.352 67.7973 183.715 72.912 179.758 77.334C173.069 84.7925 164.243 88.638 154.89 91.3086C154.365 91.449 153.85 91.6656 153.181 91.9007C152.66 99.1605 152.321 106.012 151.678 112.899C151.403 116.415 150.757 120.052 146.039 120.077C142.017 120.095 139.185 116.488 139.37 111.59C139.623 102.738 140.105 93.8573 140.273 84.9374C140.278 79.8289 139.885 74.6137 139.424 69.4839C139.308 67.8726 138.2 66.3804 137.473 64.8424C135.954 61.8519 136.005 59.0596 139.139 57.4451C148.819 52.3363 159.023 49.0217 170.177 50.3914C176.94 51.2822 181.954 55.0142 184.218 61.63ZM171.905 67.3646C174.352 63.8978 172.936 61.127 168.609 61.1821C165.207 61.2036 161.819 61.9972 158.386 62.4093C154.791 62.7635 153.333 64.7959 153.458 68.4182C153.556 71.8117 153.272 75.2509 153.175 79.5964C161.002 77.109 167.481 73.7 171.905 67.3646ZM245.829 54.234C247.962 60.4013 245.326 65.516 241.368 69.938C234.679 77.3965 225.854 81.2419 216.501 83.9125C215.976 84.0529 215.46 84.2696 214.792 84.5046C214.271 91.7645 213.932 98.6155 213.289 105.503C213.014 109.019 212.367 112.656 207.649 112.681C203.627 112.699 200.795 109.092 200.981 104.194C201.234 95.3416 201.716 86.4613 201.883 77.5413C201.889 72.4329 201.495 67.2176 201.034 62.0878C200.918 60.4766 199.81 58.9844 199.084 57.4464C197.564 54.4558 197.616 51.6636 200.75 50.0491C210.43 44.9402 220.634 41.6257 231.788 42.9954C238.55 43.8862 243.564 47.6181 245.829 54.234ZM233.516 59.9686C235.963 56.5018 234.547 53.731 230.22 53.7861C226.817 53.8076 223.43 54.6012 219.997 55.0133C216.402 55.3674 214.943 57.3999 215.069 61.0222C215.167 64.4156 214.883 67.8548 214.785 72.2004C222.613 69.713 229.091 66.304 233.516 59.9686ZM296.018 35.3624C297.077 37.0926 297.053 40.1137 296.281 42.0638C293.925 48.2282 290.513 53.9776 288.32 60.2C286.388 65.3849 285.998 71.1586 284.143 76.3343C281.36 84.0978 277.616 91.5897 277.793 100.159C277.796 101.474 278.123 102.905 277.632 103.97C276.878 106.073 275.956 109.356 274.525 109.683C272.484 110.083 269.249 108.923 267.97 107.297C266.502 105.384 265.965 102.198 266.121 99.6252C266.578 93.766 267.893 87.9587 268.436 82.1667C268.668 79.5849 268.482 76.7439 267.578 74.3758C264.398 65.9351 260.769 57.6257 257.436 49.2033C255.657 44.6961 256.624 41.7939 259.594 40.7409C262.935 39.5659 266.612 41.8331 268.126 46.0626C269.893 51.113 271.746 56.2306 273.843 62.0927C278.014 53.0017 281.465 45.0031 285.325 37.1877C286.259 35.2956 288.413 33.2571 290.235 32.961C292.048 32.5886 295.063 33.8518 296.018 35.3624Z" fill="white"/>
<path d="M280.892 122.888L280.901 122.964C284.182 124.505 285.607 127.352 284.237 130.767C277.936 146.615 276.319 163.448 273.98 180.058C273.583 183.201 273.775 186.738 269.967 187.892C266.311 189.027 263.415 186.821 261.474 184.19C258.254 179.933 255.608 175.298 252.752 170.843C251.882 169.399 251.156 167.861 249.956 165.606C246.426 172.299 243.28 178.326 240.067 184.438C238.498 187.49 237.061 190.99 232.633 190.206C228.138 189.508 226.878 186.099 226.316 182.065C223.85 166.032 221.221 149.94 218.755 133.907C217.876 128.518 218.993 126.217 222.502 125.796C226.079 125.289 229.2 128.087 230.037 132.475C231.862 143.168 233.773 153.928 235.803 165.68C238.561 160.938 240.392 156.849 243.077 153.431C244.814 151.133 247.685 148.621 250.279 148.31C254.161 147.766 256.05 151.254 257.387 154.654C259.129 158.856 261.025 163.039 263.249 168.035C265.098 158.294 266.514 149.456 268.491 140.783C269.65 135.614 271.371 130.609 273.33 125.653C274.651 122.476 277.611 121.347 280.892 122.888ZM316.555 125.108C326.382 127.024 332.241 133.285 333.468 143.508C335.093 156.392 326.414 173.067 314.91 179.091C306.607 183.416 297.693 180.075 295.516 170.972C291.716 154.789 295.393 139.644 303.848 125.627C306.241 121.702 309.616 121.452 313.531 123.768C314.529 124.345 315.527 124.921 316.555 125.108ZM306.627 169.406C315.852 165.667 323.353 152.075 321.808 142.432C321.613 141.449 321.619 140.21 321.002 139.587C319.4 137.845 317.365 135.071 315.762 135.264C313.761 135.349 310.804 137.794 310.337 139.707C308.381 147.913 307.13 156.189 305.803 164.474C305.605 166.046 306.35 167.736 306.627 169.406ZM397.745 159.009C398.92 160.416 399.543 163.669 398.697 165.009C397.852 166.348 394.694 167.115 392.875 166.791C387.553 165.65 382.435 163.633 377.171 162.33C371.84 161.113 366.487 160.363 360.716 159.353C360.765 162.984 360.674 166.091 360.888 169.161C360.986 172.554 360.467 175.325 356.518 175.954C353.323 176.415 349.942 174.035 349.349 170.391C348.675 166.061 348.135 161.56 348.137 157.071C348.085 146.32 348.338 135.532 348.514 124.754C348.658 118.855 349.787 117.945 355.591 117.945C356.677 117.969 357.977 117.194 358.801 116.322C362.622 112.69 366.781 109.946 372.366 111.985C378.197 114.148 380.498 119.134 381.252 124.771C382.412 133.144 379.755 140.661 375.004 147.499C374.485 148.336 373.966 149.172 373.246 150.264C379.642 151.973 385.535 153.355 391.245 155.146C393.586 155.949 396.21 157.181 397.745 159.009ZM360.511 144.751C367.457 139.428 371.317 129.678 368.847 123.938C362.522 129.263 360.419 136.249 360.511 144.751ZM438.752 128.393C443.187 135.677 447.966 142.61 455.003 147.725C457.454 149.443 459.309 152.006 457.283 155.112C455.132 158.466 451.598 158.039 449.34 155.989C443.883 151.149 438.973 145.702 433.861 140.511C433.064 139.678 432.488 138.741 431.001 136.676C428.618 144.546 426.44 151.54 424.27 158.611C423.95 159.81 423.877 161.135 423.566 162.41C422.446 167.266 417.53 168.862 414.155 165.243C412.381 163.366 410.947 160.443 410.892 158.05C410.632 144.925 410.686 131.84 410.903 118.812C410.969 112.922 411.579 107.045 411.952 101.119C412.214 96.2116 414.084 93.7427 417.429 93.8829C421.469 94.017 424.463 97.6819 424.097 102.369C423.618 108.695 422.978 114.963 422.413 121.222C422.322 122.394 422.536 123.529 422.575 125.15C427.619 116.883 432.193 109.214 436.862 101.688C438.437 99.3323 440.249 97.0251 442.251 95.0049C445.01 92.1972 448.479 92.0903 451.156 94.4002C453.936 96.9299 453.79 99.5788 451.275 103.131C446.918 109.381 442.893 115.823 438.544 122.149C437.037 124.42 437.324 126.165 438.752 128.393Z" fill="white"/>
</svg>
